<?xml version="1.0" standalone="no"?>
<!DOCTYPE svg PUBLIC "-//W3C//DTD SVG 20010904//EN"
 "http://www.w3.org/TR/2001/REC-SVG-20010904/DTD/svg10.dtd">
<svg version="1.0" xmlns="http://www.w3.org/2000/svg"
 width="1024.000000pt" height="1024.000000pt" viewBox="0 0 1024.000000 1024.000000"
 preserveAspectRatio="xMidYMid meet">

<g transform="translate(0.000000,1024.000000) scale(0.100000,-0.100000)"
fill="#000000" stroke="none">
<path d="M4860 8509 c-295 -32 -598 -113 -895 -239 -583 -246 -1163 -758
-1497 -1322 -233 -394 -366 -806 -409 -1271 -17 -184 -7 -553 21 -732 133
-878 635 -1679 1355 -2159 420 -281 895 -445 1464 -507 152 -16 476 -6 646 20
548 83 1079 299 1479 600 297 224 519 461 722 770 344 528 516 1098 516 1711
-1 406 -65 752 -208 1113 -299 753 -838 1347 -1539 1692 -337 166 -616 254
-973 306 -159 23 -546 33 -682 18z m-440 -268 c0 -36 42 -156 95 -271 70 -152
87 -215 88 -319 0 -138 -38 -205 -244 -432 -320 -352 -419 -516 -419 -697 0
-114 51 -162 172 -162 62 0 118 12 289 63 190 56 306 72 544 72 173 0 241 -4
318 -19 54 -10 96 -20 94 -23 -3 -2 -45 3 -93 11 -49 9 -156 18 -239 20 -82 2
-128 2 -102 -1 43 -4 47 -6 35 -20 -9 -12 -10 -15 0 -9 8 5 12 0 12 -14 0 -12
4 -19 9 -16 5 4 7 -3 4 -13 -3 -11 -11 -17 -18 -14 -8 2 -22 -1 -32 -7 -16
-10 -16 -11 4 -7 29 6 38 -7 16 -24 -14 -11 -15 -11 -9 -1 6 10 2 13 -15 10
-17 -2 -23 1 -21 12 3 12 1 13 -10 2 -10 -10 -10 -16 0 -32 17 -28 -1 -60 -33
-60 -13 0 -32 -11 -43 -25 -11 -14 -29 -25 -40 -25 -12 0 -26 -8 -31 -17 -8
-14 -11 -15 -11 -3 -1 10 -4 9 -10 -5 -5 -11 -9 -14 -9 -7 -1 10 -5 10 -16 -2
-9 -8 -23 -13 -33 -10 -14 5 -14 4 -2 -4 8 -6 17 -9 21 -6 4 2 10 1 13 -4 2
-4 -7 -9 -22 -10 -15 -1 -28 -7 -30 -12 -2 -6 -10 -10 -18 -10 -9 0 -14 -7
-12 -17 2 -12 -3 -17 -14 -15 -12 2 -16 -2 -12 -13 4 -10 0 -15 -10 -15 -14 0
-20 -12 -17 -32 0 -5 -3 -9 -9 -9 -5 -1 -13 -2 -17 -3 -17 -3 -62 -57 -58 -69
3 -6 -5 -23 -16 -37 -11 -14 -18 -19 -14 -12 6 11 3 11 -13 1 -12 -7 -19 -16
-16 -20 2 -4 -1 -9 -8 -11 -11 -4 -16 -21 -21 -64 -1 -13 -7 -19 -14 -17 -7 3
-13 0 -13 -7 0 -6 -3 -9 -7 -7 -5 3 -14 -1 -21 -9 -7 -8 -10 -14 -5 -14 4 0
-2 -6 -12 -14 -11 -8 -24 -12 -29 -9 -5 4 -6 1 -2 -6 4 -6 12 -8 18 -5 6 4 8
-1 6 -12 -2 -11 -11 -18 -20 -18 -10 1 -16 -3 -15 -10 1 -6 -3 -10 -9 -9 -14
3 -13 -29 1 -40 6 -5 1 -6 -10 -3 -16 5 -21 1 -22 -14 -1 -13 2 -18 10 -13 7
4 6 0 -2 -10 -14 -18 -36 -24 -26 -7 8 12 3 13 -29 0 -14 -5 -26 -17 -26 -25
0 -10 5 -13 12 -9 7 4 8 3 4 -4 -5 -9 -15 -7 -34 6 -15 9 -23 11 -18 4 4 -7 4
-27 0 -45 -5 -25 -8 -28 -13 -14 -6 16 -8 16 -26 1 -15 -11 -16 -14 -4 -11 14
5 14 0 -3 -35 -11 -22 -17 -47 -13 -56 3 -8 0 -19 -7 -24 -10 -6 -10 -10 1
-17 12 -8 12 -12 2 -25 -9 -11 -10 -20 -2 -35 7 -13 8 -22 1 -26 -6 -4 -5 -14
3 -27 10 -16 9 -22 -1 -25 -10 -4 -10 -8 2 -17 14 -10 14 -14 2 -38 -9 -16
-11 -30 -5 -33 5 -4 9 -12 8 -18 0 -9 -2 -9 -6 1 -7 19 -19 14 -19 -8 0 -15 5
-18 23 -14 14 4 23 2 23 -6 0 -6 -4 -9 -9 -6 -5 3 -14 -1 -21 -9 -10 -12 -10
-15 0 -15 9 0 8 -5 -3 -18 -21 -23 -22 -39 -2 -39 8 0 12 4 9 9 -3 4 0 8 6 8
6 0 9 4 5 9 -3 5 0 13 6 17 7 4 9 3 6 -3 -4 -6 0 -13 8 -17 17 -6 21 -56 4
-56 -5 0 -7 6 -3 13 5 9 4 9 -6 0 -11 -10 -11 -16 3 -31 18 -19 24 -47 8 -38
-5 3 -12 -1 -15 -10 -3 -8 -2 -12 4 -9 6 3 10 -3 10 -14 0 -11 5 -23 10 -26 6
-4 10 20 10 63 0 140 51 362 116 510 68 154 226 344 361 434 133 89 235 131
373 154 147 24 299 12 440 -36 180 -61 367 -211 449 -361 30 -54 17 -42 -33
33 -52 78 -178 197 -262 246 -262 155 -619 157 -882 5 -275 -160 -448 -412
-524 -766 -31 -144 -31 -430 0 -598 91 -500 382 -903 864 -1197 139 -85 241
-171 267 -226 20 -40 21 -47 8 -85 -40 -114 -224 -273 -469 -404 -131 -70
-190 -87 -306 -87 -286 0 -751 211 -1147 520 -215 167 -490 464 -642 690 -414
619 -577 1345 -470 2092 l23 157 55 58 c29 32 69 75 87 97 18 21 34 37 36 35
2 -2 15 -91 30 -198 37 -264 55 -358 75 -382 38 -47 76 16 111 181 13 58 30
135 39 171 l17 67 23 -87 c58 -216 124 -438 137 -458 18 -29 40 -29 54 -2 7
12 15 122 20 267 5 136 9 249 9 250 1 2 48 -90 106 -204 108 -213 146 -274
170 -274 21 0 28 36 16 88 -10 41 -72 468 -86 592 -5 40 -4 42 7 24 7 -12 73
-90 147 -173 134 -151 162 -172 169 -123 2 13 -37 139 -87 282 -50 143 -91
261 -91 264 0 2 55 -21 123 -51 197 -90 267 -109 295 -81 7 7 12 20 12 30 0
33 -90 161 -263 376 -33 40 -57 75 -55 77 2 3 60 21 129 41 227 66 391 124
425 149 41 31 45 67 11 90 -13 8 -127 38 -253 66 -126 28 -230 52 -231 53 -1
1 31 27 71 59 108 85 146 124 146 153 0 37 -26 41 -187 27 -81 -7 -148 -11
-151 -9 -2 3 5 17 16 33 10 15 68 118 127 228 60 110 115 205 124 212 34 26
292 154 399 197 118 49 308 116 330 116 6 0 12 -9 12 -19z m665 -146 c84 -51
79 -51 154 -20 38 15 74 24 81 20 12 -7 11 -33 -6 -138 -6 -36 -3 -41 50 -94
62 -60 67 -82 23 -97 -26 -9 -102 0 -148 18 -11 5 -20 -8 -38 -58 -22 -63 -46
-96 -70 -96 -6 0 -25 29 -41 65 l-29 65 -65 0 c-55 0 -67 3 -80 22 -19 27 -11
44 57 115 l49 53 -11 44 c-12 50 -15 109 -4 119 12 13 38 7 78 -18z m-1628
-327 c-19 -35 -65 -123 -102 -195 -38 -73 -71 -133 -74 -133 -3 0 -25 34 -47
76 l-42 77 77 68 c91 80 203 169 214 169 5 0 -7 -28 -26 -62z m-258 -353 c54
-108 71 -179 78 -315 15 -327 -120 -604 -337 -687 -33 -12 -76 -17 -165 -17
-116 0 -123 1 -218 39 -55 21 -101 44 -104 50 -7 19 61 187 122 303 120 226
269 440 445 638 l103 116 18 -23 c10 -13 36 -60 58 -104z m262 -105 c-51 -46
-94 -80 -96 -78 -8 8 -54 146 -50 150 2 2 56 5 121 7 l116 3 -91 -82z m1306
-99 c-6 -50 -6 -50 29 -61 46 -16 42 -39 -13 -65 -41 -19 -42 -21 -45 -75 -4
-71 -25 -77 -78 -25 l-38 37 -53 -36 c-30 -20 -57 -36 -61 -36 -22 0 6 75 43
115 18 20 18 24 2 78 -21 76 -12 86 56 61 l50 -18 43 37 c61 51 72 49 65 -12z
m-1134 -87 c130 -28 220 -52 210 -55 -10 -4 -122 -40 -249 -81 l-231 -75 1
134 c1 129 2 134 21 130 11 -2 123 -26 248 -53z m-141 -469 c75 -99 135 -181
133 -183 -1 -1 -80 30 -176 71 -121 51 -173 77 -172 87 6 33 68 210 74 207 3
-1 67 -83 141 -182z m-235 -173 c72 -190 121 -327 119 -329 -3 -3 -121 133
-194 224 l-44 53 41 46 c23 26 41 51 41 55 0 26 18 2 37 -49z m2198 -57 c39
-17 21 -18 -25 0 -19 7 -28 14 -20 14 8 0 29 -6 45 -14z m-2971 -47 c17 -13
13 -19 -60 -86 -43 -39 -80 -70 -81 -68 -4 4 45 153 58 177 9 17 12 18 37 5
15 -8 35 -21 46 -28z m3036 22 c8 -5 11 -10 5 -10 -5 0 -17 5 -25 10 -8 5 -10
10 -5 10 6 0 17 -5 25 -10z m-2395 -239 c13 -102 29 -217 34 -256 6 -38 8 -71
6 -73 -4 -4 -87 166 -151 309 -32 73 -62 176 -53 181 2 2 31 17 64 33 57 28
60 29 68 11 4 -10 18 -102 32 -205z m2475 204 c14 -8 21 -14 15 -14 -5 0 -21
6 -35 14 -14 8 -20 14 -15 14 6 0 21 -6 35 -14z m-670 -27 c0 -6 -6 -5 -15 2
-8 7 -15 14 -15 16 0 2 7 1 15 -2 8 -4 15 -11 15 -16z m-2267 -20 c45 -9 57
-16 57 -31 0 -25 -34 -158 -71 -278 -16 -53 -29 -104 -29 -113 0 -9 -4 -16 -8
-16 -7 0 -53 389 -52 444 0 14 5 17 23 12 12 -3 48 -11 80 -18z m253 -195 c-3
-109 -9 -234 -13 -277 l-6 -79 -44 154 c-47 167 -93 347 -93 367 0 8 17 12 48
13 38 1 75 7 111 18 2 0 1 -88 -3 -196z m2925 80 c13 -16 12 -17 -3 -4 -10 7
-18 15 -18 17 0 8 8 3 21 -13z m-1494 -449 c-3 -3 -12 -4 -19 -1 -8 3 -5 6 6
6 11 1 17 -2 13 -5z m1587 -254 c5 -17 4 -20 -2 -10 -5 8 -13 26 -16 40 -5 17
-4 20 2 10 5 -8 13 -26 16 -40z m-1148 -2 c12 -20 9 -63 -4 -63 -7 0 -16 -6
-21 -13 -5 -9 -11 -5 -19 13 -17 37 -15 63 6 68 29 8 31 7 38 -5z m-662 -10
c-3 -4 -9 -8 -15 -8 -5 0 -9 4 -9 8 0 5 7 9 15 9 8 0 12 -4 9 -9z m3269 -228
c131 -120 215 -269 243 -431 50 -289 -68 -565 -311 -728 -64 -43 -215 -111
-245 -111 -6 0 22 37 61 83 127 146 192 257 231 394 32 108 31 287 -2 423 -31
129 -81 271 -146 413 -30 65 -54 120 -54 122 0 10 163 -110 223 -165z m-1436
138 c-3 -8 -6 -5 -6 6 -1 11 2 17 5 13 3 -3 4 -12 1 -19z m10 -55 c-3 -10 -5
-4 -5 12 0 17 2 24 5 18 2 -7 2 -21 0 -30z m10 -145 c-2 -24 -4 -7 -4 37 0 44
2 63 4 43 2 -21 2 -57 0 -80z m483 -1684 c10 -24 6 -66 -16 -176 -5 -25 -2
-28 44 -41 67 -21 108 -43 116 -64 10 -26 -34 -60 -105 -81 -52 -15 -59 -20
-54 -37 15 -48 17 -105 5 -120 -21 -26 -50 -17 -115 35 -66 53 -94 61 -116 33
-25 -30 -102 -73 -131 -73 -40 0 -37 32 12 130 22 44 40 89 40 100 0 11 -9 54
-21 97 -27 97 -19 156 21 161 24 3 38 -5 116 -63 19 -14 24 -12 91 55 38 38
77 70 87 70 9 0 21 -12 26 -26z"/>
<path d="M3922 6585 c0 -16 2 -22 5 -12 2 9 2 23 0 30 -3 6 -5 -1 -5 -18z"/>
<path d="M3922 6470 c0 -14 2 -19 5 -12 2 6 2 18 0 25 -3 6 -5 1 -5 -13z"/>
<path d="M4758 6473 c7 -3 16 -2 19 1 4 3 -2 6 -13 5 -11 0 -14 -3 -6 -6z"/>
<path d="M3930 6431 c0 -6 4 -13 10 -16 6 -3 7 1 4 9 -7 18 -14 21 -14 7z"/>
<path d="M4038 6343 c7 -3 16 -2 19 1 4 3 -2 6 -13 5 -11 0 -14 -3 -6 -6z"/>
<path d="M4115 6340 l-50 -7 45 0 c25 -1 56 3 70 7 31 10 8 10 -65 0z"/>
<path d="M4870 6310 c0 -5 5 -10 11 -10 5 0 7 5 4 10 -3 6 -8 10 -11 10 -2 0
-4 -4 -4 -10z"/>
<path d="M4810 6293 c0 -12 -6 -24 -12 -26 -8 -4 -9 -6 -2 -6 19 -2 34 23 24
39 -8 12 -10 11 -10 -7z"/>
<path d="M4368 5843 c7 -3 16 -2 19 1 4 3 -2 6 -13 5 -11 0 -14 -3 -6 -6z"/>
<path d="M4196 5628 c3 -4 11 -5 19 -1 21 7 19 12 -4 10 -11 0 -18 -5 -15 -9z"/>
<path d="M4041 5384 c0 -11 3 -14 6 -6 3 7 2 16 -1 19 -3 4 -6 -2 -5 -13z"/>
<path d="M4010 5079 c0 -5 5 -7 10 -4 6 3 10 1 10 -4 0 -6 5 -11 11 -11 8 0 8
5 -1 15 -14 17 -30 20 -30 4z"/>
<path d="M4030 4993 c0 -7 -6 -10 -14 -7 -11 4 -13 0 -9 -16 4 -15 8 -18 13
-10 6 9 9 9 13 -1 4 -10 6 -10 6 2 1 19 31 48 31 30 0 -6 -4 -11 -10 -11 -5 0
-10 -4 -10 -10 0 -5 7 -10 15 -10 9 0 15 9 15 24 0 19 -5 24 -25 22 -14 0 -25
-6 -25 -13z"/>
<path d="M4017 4928 c7 -8 11 -17 8 -19 -2 -3 5 -5 15 -5 11 0 22 6 25 14 3 8
0 12 -7 9 -7 -2 -22 0 -33 6 -17 9 -18 8 -8 -5z"/>
<path d="M4117 4774 c3 -38 7 -71 9 -73 8 -9 3 115 -5 128 -5 8 -7 -14 -4 -55z"/>
<path d="M4133 4655 c0 -22 2 -30 4 -17 2 12 2 30 0 40 -3 9 -5 -1 -4 -23z"/>
<path d="M4141 4584 c0 -11 3 -14 6 -6 3 7 2 16 -1 19 -3 4 -6 -2 -5 -13z"/>
<path d="M4505 3780 c10 -11 20 -20 23 -20 3 0 -3 9 -13 20 -10 11 -20 20 -23
20 -3 0 3 -9 13 -20z"/>
<path d="M4695 3580 c10 -11 20 -20 23 -20 3 0 -3 9 -13 20 -10 11 -20 20 -23
20 -3 0 3 -9 13 -20z"/>
<path d="M4770 3516 c14 -15 24 -31 23 -34 -2 -4 5 -7 14 -7 10 0 19 -8 21
-17 2 -12 -3 -18 -16 -18 -15 0 -19 -5 -15 -21 3 -11 12 -23 19 -26 8 -3 12
-8 9 -12 -2 -4 2 -8 10 -8 8 0 15 5 15 10 0 6 3 7 6 4 4 -4 1 -13 -6 -22 -9
-10 -9 -15 -1 -16 6 -1 17 -2 24 -3 6 0 12 -5 12 -11 2 -27 18 -55 36 -60 10
-4 17 -10 14 -14 -8 -14 19 -61 33 -56 7 3 10 1 7 -5 -6 -9 36 -37 45 -29 8 7
7 -57 -1 -80 -6 -15 -13 -19 -26 -14 -12 5 -9 -2 10 -22 24 -27 32 -45 28 -67
0 -5 3 -8 8 -8 5 0 7 -9 4 -20 -3 -11 -8 -18 -12 -15 -4 2 -7 -6 -6 -18 1 -12
8 -22 16 -22 8 -1 13 -6 12 -12 -2 -7 10 -11 30 -10 27 2 32 -1 31 -20 0 -20
3 -19 42 13 50 41 104 105 128 151 42 82 7 140 -154 255 -115 81 -261 168
-272 162 -6 -4 -8 -2 -5 3 4 6 -19 30 -51 53 -40 31 -50 35 -32 16z m120 -146
c0 -5 -5 -10 -11 -10 -5 0 -7 5 -4 10 3 6 8 10 11 10 2 0 4 -4 4 -10z m142
-314 c7 4 8 2 4 -5 -9 -13 -26 -5 -25 12 0 9 2 8 6 -1 2 -6 10 -9 15 -6z m42
-124 c3 -5 -1 -9 -9 -9 -8 0 -15 4 -15 9 0 4 4 8 9 8 6 0 12 -4 15 -8z"/>
<path d="M4980 3160 c-8 -5 -8 -9 2 -12 16 -6 38 1 38 11 0 10 -26 10 -40 1z"/>
</g>
</svg>
